<svg viewBox="0 0 46 46" fill="none" xmlns="http://www.w3.org/2000/svg">
<rect x="1.5" y="1.5" width="37" height="37" rx="4.5" fill="#2DD4BF" stroke="#212121" stroke-width="3"/>
<rect x="7.5" y="7.5" width="37" height="37" rx="4.5" fill="white" stroke="#212121" stroke-width="3"/>
<path d="M16.792 40.304C16.6533 40.336 16.536 40.3147 16.44 40.24C16.3547 40.176 16.2907 40.08 16.248 39.952C16.1627 39.7067 16.0987 39.44 16.056 39.152C16.024 38.8533 16.0187 38.592 16.04 38.368L16.072 38.032L15.448 38.528C15.0853 38.848 14.7333 39.0773 14.392 39.216C14.0613 39.3547 13.768 39.424 13.512 39.424C13.3947 39.4027 13.2773 39.36 13.16 39.296C13.0427 39.232 12.936 39.152 12.84 39.056C12.7547 38.96 12.6853 38.8587 12.632 38.752C12.568 38.6027 12.5467 38.4 12.568 38.144C12.6 37.888 12.664 37.6107 12.76 37.312C12.8667 37.0027 12.9947 36.704 13.144 36.416C13.304 36.1173 13.4853 35.856 13.688 35.632C14.04 35.0987 14.4187 34.7733 14.824 34.656C15.2293 34.5387 15.6293 34.5973 16.024 34.832C16.3013 34.9493 16.472 35.0027 16.536 34.992C16.6107 34.9813 16.6747 34.8587 16.728 34.624C16.7707 34.4533 16.8133 34.2827 16.856 34.112C16.8987 33.9307 16.968 33.6907 17.064 33.392C17.3307 32.5813 17.56 31.9467 17.752 31.488C17.9547 31.0293 18.136 30.6293 18.296 30.288C18.4133 30.0427 18.5093 29.8933 18.584 29.84C18.6693 29.776 18.7547 29.7493 18.84 29.76C18.9573 29.76 19.064 29.8027 19.16 29.888C19.256 29.9733 19.3307 30.0907 19.384 30.24C19.4267 30.336 19.4427 30.4213 19.432 30.496C19.432 30.56 19.4 30.6507 19.336 30.768C19.1973 31.024 19.032 31.3653 18.84 31.792C18.6587 32.208 18.472 32.6667 18.28 33.168C18.0987 33.6693 17.928 34.1653 17.768 34.656C17.608 35.1467 17.4747 35.5787 17.368 35.952C17.304 36.1867 17.2453 36.4853 17.192 36.848C17.1493 37.2107 17.112 37.584 17.08 37.968C17.048 38.3413 17.0267 38.6773 17.016 38.976C17.016 39.264 17.0267 39.4507 17.048 39.536C17.112 39.7493 17.1387 39.9093 17.128 40.016C17.128 40.1227 17.1013 40.192 17.048 40.224C16.9947 40.2667 16.9093 40.2933 16.792 40.304ZM14.088 38.528C14.2373 38.496 14.3813 38.4373 14.52 38.352C14.6693 38.2667 14.824 38.1653 14.984 38.048C15.304 37.8027 15.5813 37.5787 15.816 37.376C16.0507 37.1733 16.2053 36.864 16.28 36.448C16.3013 36.2453 16.28 36.0853 16.216 35.968C16.1627 35.84 16.072 35.7227 15.944 35.616C15.816 35.5307 15.64 35.4987 15.416 35.52C15.2027 35.5307 14.9787 35.6427 14.744 35.856C14.488 36.0907 14.2373 36.4053 13.992 36.8C13.7573 37.1947 13.5813 37.68 13.464 38.256C13.4427 38.3627 13.4747 38.448 13.56 38.512C13.6453 38.576 13.8213 38.5813 14.088 38.528ZM19.8573 39.504C19.8253 39.5147 19.7719 39.5093 19.6973 39.488C19.6226 39.4667 19.5479 39.44 19.4733 39.408C19.3986 39.376 19.3506 39.3493 19.3293 39.328C19.2866 39.2853 19.2439 39.2213 19.2013 39.136C19.1693 39.0507 19.1693 38.928 19.2013 38.768C19.2333 38.5973 19.3399 38.3787 19.5213 38.112C19.5746 38.0053 19.6386 37.8453 19.7133 37.632C19.7879 37.4187 19.8626 37.1947 19.9373 36.96C20.0226 36.7147 20.0973 36.496 20.1613 36.304C20.2359 36.112 20.2893 35.9787 20.3213 35.904C20.3426 35.7227 20.3319 35.5947 20.2893 35.52C20.2573 35.4347 20.1666 35.3867 20.0173 35.376C19.9106 35.376 19.8253 35.3653 19.7613 35.344C19.7079 35.3227 19.6813 35.216 19.6813 35.024C19.7026 34.8747 19.7399 34.7733 19.7933 34.72C19.8573 34.656 19.9426 34.5867 20.0493 34.512C20.1559 34.4587 20.2626 34.4213 20.3693 34.4C20.4866 34.3787 20.5986 34.3733 20.7053 34.384C20.8119 34.3947 20.8973 34.432 20.9613 34.496C21.0359 34.5387 21.0839 34.6347 21.1053 34.784C21.1266 34.9227 21.1373 35.0667 21.1373 35.216C21.1479 35.3653 21.1586 35.4773 21.1693 35.552C21.2759 35.4667 21.4199 35.3493 21.6013 35.2C21.7933 35.04 21.9586 34.8907 22.0973 34.752C22.2679 34.6347 22.4706 34.5173 22.7053 34.4C22.9399 34.272 23.1106 34.208 23.2173 34.208C23.3346 34.208 23.4519 34.24 23.5693 34.304C23.6866 34.3573 23.7666 34.4267 23.8093 34.512C23.9159 34.6933 23.9639 34.8533 23.9533 34.992C23.9533 35.1307 23.8946 35.2747 23.7773 35.424C23.6706 35.5627 23.5373 35.6587 23.3773 35.712C23.2279 35.7653 23.1319 35.792 23.0893 35.792C23.0253 35.792 22.9453 35.744 22.8493 35.648C22.7533 35.552 22.6999 35.472 22.6893 35.408C22.6893 35.376 22.6199 35.408 22.4813 35.504C22.3533 35.5893 22.2093 35.7013 22.0493 35.84C21.8893 35.968 21.7559 36.0853 21.6493 36.192C21.4679 36.416 21.2759 36.72 21.0733 37.104C20.8706 37.488 20.6306 37.952 20.3533 38.496C20.2253 38.7627 20.1346 38.992 20.0813 39.184C20.0279 39.3653 19.9533 39.472 19.8573 39.504ZM24.7589 39.424C24.7162 39.3387 24.6629 39.2747 24.5989 39.232C24.5349 39.1787 24.5029 39.1307 24.5029 39.088C24.5029 39.0453 24.4975 39.0027 24.4869 38.96C24.4869 38.9067 24.4655 38.8587 24.4229 38.816C24.3695 38.752 24.3749 38.608 24.4389 38.384C24.5029 38.1493 24.6095 37.8667 24.7589 37.536C24.9082 37.1947 25.0842 36.8373 25.2869 36.464C25.3722 36.3787 25.4575 36.2667 25.5429 36.128C25.6282 35.9893 25.6922 35.8987 25.7349 35.856C25.7349 35.8133 25.7509 35.776 25.7829 35.744C25.8149 35.7013 25.8522 35.68 25.8949 35.68V35.584C25.8949 35.5307 25.9429 35.44 26.0389 35.312C26.1455 35.184 26.2735 35.0453 26.4229 34.896C26.5722 34.736 26.7269 34.5867 26.8869 34.448C27.0469 34.2987 27.1802 34.192 27.2869 34.128C27.5109 33.9787 27.7402 33.888 27.9749 33.856C28.2202 33.824 28.4282 33.8773 28.5989 34.016C28.6309 34.048 28.6842 34.1013 28.7589 34.176C28.8335 34.2507 28.9189 34.336 29.0149 34.432C29.1215 34.5173 29.2282 34.608 29.3349 34.704L29.9269 35.232L29.6389 36.032C29.5002 36.4587 29.4629 36.832 29.5269 37.152C29.6015 37.472 29.7082 37.7493 29.8469 37.984C29.9002 38.1013 30.0069 38.2133 30.1669 38.32C30.3375 38.4267 30.4975 38.4907 30.6469 38.512C30.7322 38.5227 30.8122 38.5547 30.8869 38.608C30.9615 38.6613 30.9989 38.7467 30.9989 38.864C30.9989 38.9707 30.9775 39.056 30.9349 39.12C30.8922 39.184 30.8175 39.2267 30.7109 39.248C30.3589 39.2907 30.0282 39.2053 29.7189 38.992C29.4202 38.7787 29.1429 38.4267 28.8869 37.936C28.8442 37.872 28.7855 37.7547 28.7109 37.584C28.6469 37.4027 28.6095 37.2853 28.5989 37.232C28.5562 37.2853 28.4762 37.3867 28.3589 37.536C28.2415 37.6747 28.1509 37.776 28.0869 37.84C27.3295 38.608 26.6735 39.1253 26.1189 39.392C25.5749 39.648 25.1215 39.6587 24.7589 39.424ZM25.3349 38.528C25.3349 38.6027 25.4469 38.6027 25.6709 38.528C25.9055 38.4427 26.1562 38.2933 26.4229 38.08C26.7855 37.7707 27.1482 37.4293 27.5109 37.056C27.8842 36.6827 28.1829 36.336 28.4069 36.016L28.7589 35.44C28.6522 35.1947 28.5349 35.0293 28.4069 34.944C28.2895 34.848 28.1882 34.8 28.1029 34.8C27.9642 34.8 27.7562 34.928 27.4789 35.184C27.2122 35.44 26.9242 35.7813 26.6149 36.208C26.3055 36.6347 26.0122 37.104 25.7349 37.616C25.6282 37.8293 25.5322 38.0373 25.4469 38.24C25.3722 38.432 25.3349 38.528 25.3349 38.528ZM31.9993 41.696C31.9353 41.7387 31.8606 41.728 31.7753 41.664C31.7006 41.6 31.5886 41.4827 31.4393 41.312C31.3646 41.2267 31.3166 41.136 31.2953 41.04C31.2739 40.944 31.2793 40.7627 31.3113 40.496C31.3539 40.3787 31.3753 40.2667 31.3753 40.16C31.3859 40.0533 31.3913 39.9787 31.3913 39.936C31.3913 39.872 31.4073 39.7227 31.4393 39.488C31.4819 39.2533 31.5246 39.008 31.5673 38.752C31.6099 38.4853 31.6473 38.2827 31.6793 38.144C31.6793 38.1333 31.6846 38.1067 31.6953 38.064C31.7059 38.0213 31.7166 37.984 31.7273 37.952C31.7486 37.856 31.7753 37.728 31.8073 37.568C31.8499 37.408 31.8873 37.2107 31.9193 36.976C32.0046 36.7093 32.0739 36.448 32.1273 36.192C32.1913 35.9253 32.2233 35.744 32.2233 35.648C32.2233 35.456 32.2979 35.3173 32.4473 35.232C32.4579 35.1787 32.4899 35.0987 32.5433 34.992C32.5966 34.8747 32.6446 34.7787 32.6873 34.704C32.9006 34.096 33.0766 33.616 33.2153 33.264C33.3539 32.9013 33.4979 32.5867 33.6473 32.32C33.7113 32.1387 33.7806 31.952 33.8553 31.76C33.9406 31.568 34.0259 31.4187 34.1113 31.312C34.1646 31.1733 34.2873 30.9973 34.4793 30.784C34.6713 30.56 34.8739 30.3467 35.0873 30.144C35.3006 29.9307 35.4713 29.7707 35.5993 29.664C35.8339 29.5467 36.0206 29.4667 36.1593 29.424C36.2979 29.3813 36.4793 29.36 36.7033 29.36C36.9059 29.36 37.0393 29.3867 37.1033 29.44C37.1779 29.4827 37.2846 29.568 37.4233 29.696C37.5726 29.856 37.6579 29.9627 37.6793 30.016C37.7006 30.0693 37.7113 30.1707 37.7113 30.32C37.6899 30.4267 37.6473 30.56 37.5833 30.72C37.5299 30.8693 37.4659 31.024 37.3913 31.184C37.3166 31.3333 37.2419 31.4613 37.1673 31.568C37.1033 31.6747 37.0499 31.728 37.0073 31.728C36.7619 31.8027 36.6393 31.6747 36.6393 31.344C36.6393 31.2693 36.6179 31.2 36.5753 31.136C36.5433 31.0613 36.5273 31.024 36.5273 31.024C36.5273 30.992 36.5326 30.9387 36.5433 30.864C36.5646 30.7787 36.5966 30.6987 36.6393 30.624C36.6926 30.5173 36.7033 30.4373 36.6713 30.384C36.6499 30.3307 36.5806 30.32 36.4633 30.352C36.4313 30.3733 36.3459 30.4373 36.2073 30.544C36.0686 30.6507 35.9193 30.7733 35.7593 30.912C35.6099 31.04 35.4766 31.1627 35.3593 31.28C35.2419 31.3973 35.1833 31.472 35.1833 31.504C35.1833 31.504 35.1619 31.552 35.1193 31.648C35.0766 31.7333 34.9966 31.8453 34.8793 31.984C34.8046 32.0907 34.7353 32.1973 34.6713 32.304C34.6179 32.4 34.5913 32.4587 34.5913 32.48C34.5913 32.5227 34.5859 32.5707 34.5753 32.624C34.5753 32.6667 34.5486 32.688 34.4953 32.688C34.4953 32.688 34.4793 32.736 34.4473 32.832C34.4153 32.928 34.3566 33.0507 34.2713 33.2C34.2286 33.3067 34.1753 33.4187 34.1113 33.536C34.0473 33.6427 33.9939 33.7173 33.9513 33.76H33.9673C33.9673 33.76 33.9406 33.8453 33.8873 34.016C33.8339 34.176 33.7753 34.3467 33.7113 34.528C33.6579 34.7093 33.6259 34.8213 33.6153 34.864C33.7646 34.8533 33.9673 34.8213 34.2233 34.768C34.4899 34.7147 34.7566 34.672 35.0233 34.64C35.4393 34.5867 35.8606 34.528 36.2873 34.464C36.7246 34.4 37.1299 34.2827 37.5033 34.112C37.5993 33.8773 37.7113 33.616 37.8393 33.328C37.9673 33.04 38.0899 32.784 38.2073 32.56C38.3353 32.336 38.4206 32.1973 38.4633 32.144C38.6446 32.048 38.7779 32.0107 38.8633 32.032C38.9486 32.0427 39.0446 32.1333 39.1513 32.304C39.2046 32.3787 39.2419 32.4373 39.2633 32.48C39.2953 32.5227 39.3006 32.5867 39.2793 32.672C39.2579 32.7573 39.1993 32.8907 39.1033 33.072C39.0179 33.2533 38.8846 33.5147 38.7033 33.856C38.6499 33.9627 38.6019 34.0587 38.5593 34.144C38.5166 34.2187 38.4953 34.256 38.4953 34.256C38.5379 34.2667 38.6019 34.272 38.6873 34.272C38.7726 34.272 38.8793 34.2667 39.0073 34.256C39.1246 34.2347 39.2739 34.2187 39.4553 34.208C39.6366 34.1867 39.7806 34.1867 39.8873 34.208C40.1326 34.208 40.3139 34.256 40.4313 34.352C40.5486 34.4373 40.6126 34.5867 40.6233 34.8C40.6446 34.9173 40.6179 34.9867 40.5433 35.008C40.4793 35.0293 40.3033 35.04 40.0153 35.04C39.9193 35.04 39.7699 35.0453 39.5673 35.056C39.3646 35.0667 39.1513 35.0773 38.9273 35.088C38.7139 35.0987 38.5273 35.1147 38.3673 35.136C38.2179 35.1467 38.1433 35.1627 38.1433 35.184C38.1113 35.2053 38.0579 35.3067 37.9833 35.488C37.9193 35.6693 37.8499 35.8773 37.7753 36.112C37.7113 36.336 37.6526 36.5387 37.5993 36.72C37.5246 37.0827 37.4659 37.4453 37.4233 37.808C37.3913 38.1707 37.3859 38.4853 37.4073 38.752C37.4286 39.0187 37.4873 39.2053 37.5833 39.312C37.6793 39.408 37.8659 39.4293 38.1433 39.376C38.4206 39.312 38.6446 39.2107 38.8153 39.072C39.0073 38.912 39.1619 38.832 39.2793 38.832C39.4073 38.832 39.4766 38.8907 39.4873 39.008C39.5086 39.1147 39.4499 39.2693 39.3113 39.472C39.1833 39.664 39.0233 39.8347 38.8313 39.984C38.6393 40.1227 38.4366 40.2187 38.2233 40.272C38.0206 40.336 37.8286 40.3413 37.6473 40.288C37.4979 40.2453 37.3753 40.192 37.2793 40.128C37.1833 40.0747 37.0553 39.9787 36.8953 39.84C36.7673 39.6693 36.6659 39.5093 36.5913 39.36C36.5273 39.2107 36.4846 39.04 36.4633 38.848C36.4419 38.6453 36.4313 38.3893 36.4313 38.08C36.4313 37.952 36.4526 37.76 36.4953 37.504C36.5486 37.248 36.6073 36.9813 36.6713 36.704C36.7459 36.416 36.8099 36.16 36.8633 35.936C36.9273 35.712 36.9646 35.568 36.9753 35.504C36.9433 35.44 36.8579 35.4027 36.7193 35.392C36.5913 35.3813 36.3886 35.392 36.1113 35.424C35.8339 35.456 35.4499 35.5093 34.9593 35.584C34.7673 35.6267 34.5326 35.6747 34.2552 35.728C33.9779 35.7813 33.7326 35.8293 33.5193 35.872C33.3166 35.9147 33.2153 35.952 33.2153 35.984C33.1726 35.984 33.1353 36.0107 33.1033 36.064C33.0713 36.1067 33.0553 36.144 33.0553 36.176C33.0553 36.3253 33.0339 36.4373 32.9913 36.512C32.9699 36.576 32.9326 36.704 32.8793 36.896C32.8259 37.088 32.7673 37.3013 32.7033 37.536C32.6499 37.7707 32.6019 37.984 32.5593 38.176C32.5273 38.368 32.5113 38.496 32.5113 38.56C32.4473 38.6347 32.4099 38.7307 32.3993 38.848C32.3886 38.9547 32.3832 39.0507 32.3832 39.136C32.3406 39.2213 32.3139 39.3013 32.3033 39.376C32.2926 39.44 32.2873 39.4933 32.2873 39.536C32.2873 39.5467 32.2873 39.568 32.2873 39.6C32.2873 39.632 32.2819 39.664 32.2713 39.696C32.2606 39.8027 32.2446 39.9413 32.2233 40.112C32.2126 40.2933 32.2073 40.4693 32.2073 40.64L32.1593 41.104C32.1486 41.2427 32.1326 41.36 32.1113 41.456C32.0899 41.5627 32.0526 41.6427 31.9993 41.696Z" fill="black"/>
<path d="M19.816 29.328C19.7627 29.3067 19.6827 29.2533 19.576 29.168C19.4693 29.0827 19.3787 28.9387 19.304 28.736C19.2293 28.5227 19.192 28.2293 19.192 27.856C19.2027 27.536 19.208 27.2853 19.208 27.104C19.2187 26.9227 19.1813 26.832 19.096 26.832C19.0107 26.832 18.8453 26.9173 18.6 27.088C18.3653 27.248 18.0933 27.4667 17.784 27.744C17.4747 28.0213 17.16 28.3307 16.84 28.672C16.7333 28.7893 16.6267 28.9013 16.52 29.008C16.424 29.104 16.328 29.168 16.232 29.2C16.136 29.2213 16.024 29.184 15.896 29.088L15.72 28.944C15.6667 28.8907 15.6347 28.8373 15.624 28.784C15.6133 28.72 15.6187 28.6507 15.64 28.576L16.008 27.52C16.1787 27.136 16.296 26.8587 16.36 26.688C16.424 26.5067 16.456 26.3947 16.456 26.352C16.456 26.2987 16.44 26.2773 16.408 26.288C16.3227 26.2987 16.1947 26.352 16.024 26.448C15.8533 26.5333 15.7413 26.6187 15.688 26.704C15.6453 26.704 15.5813 26.752 15.496 26.848C15.4107 26.944 15.304 27.0347 15.176 27.12C15.1013 27.248 14.952 27.4133 14.728 27.616C14.5147 27.8187 14.3013 28.0267 14.088 28.24C13.9493 28.3573 13.8107 28.5013 13.672 28.672C13.544 28.8427 13.432 28.992 13.336 29.12C13.2507 29.248 13.192 29.312 13.16 29.312C13.0213 29.312 12.8933 29.2747 12.776 29.2C12.6693 29.1253 12.5893 29.0027 12.536 28.832C12.4507 28.6507 12.4507 28.4 12.536 28.08C12.6213 27.7493 12.7173 27.3227 12.824 26.8C12.8667 26.64 12.8933 26.5227 12.904 26.448C12.9147 26.3733 12.9307 26.2987 12.952 26.224C12.984 26.1387 13.032 26.0107 13.096 25.84C13.1707 25.6693 13.2827 25.4133 13.432 25.072C13.5067 24.8693 13.5493 24.72 13.56 24.624C13.5813 24.5173 13.592 24.4427 13.592 24.4C13.592 24.2933 13.6187 24.2027 13.672 24.128C13.736 24.0533 13.8107 24 13.896 23.968C13.9813 23.936 14.0613 23.9307 14.136 23.952C14.2533 23.9733 14.3547 24.032 14.44 24.128C14.536 24.224 14.5893 24.3573 14.6 24.528C14.6107 24.656 14.6 24.7733 14.568 24.88C14.536 24.976 14.504 25.0667 14.472 25.152L14.296 25.584C14.2427 25.7013 14.1733 25.872 14.088 26.096C14.0027 26.32 13.928 26.528 13.864 26.72C13.8 26.9013 13.768 27.008 13.768 27.04C13.7787 27.072 13.816 27.0667 13.88 27.024C13.944 26.9707 14.024 26.9013 14.12 26.816C14.2267 26.72 14.3333 26.6293 14.44 26.544C14.664 26.3307 14.9147 26.128 15.192 25.936C15.48 25.7333 15.752 25.5627 16.008 25.424C16.264 25.2853 16.4613 25.1947 16.6 25.152C16.7813 25.152 16.904 25.184 16.968 25.248C17.0427 25.312 17.1653 25.4293 17.336 25.6C17.4107 25.6747 17.4533 25.7707 17.464 25.888C17.4747 26.0053 17.4693 26.1173 17.448 26.224C17.4373 26.2667 17.4053 26.3733 17.352 26.544C17.2987 26.704 17.2453 26.8587 17.192 27.008C17.1493 27.1573 17.128 27.232 17.128 27.232C17.128 27.232 17.1867 27.1787 17.304 27.072C17.432 26.9653 17.5707 26.8533 17.72 26.736C17.8693 26.608 17.9813 26.512 18.056 26.448C18.472 26.128 18.8347 25.9253 19.144 25.84C19.4533 25.7547 19.704 25.8667 19.896 26.176C20.024 26.2933 20.088 26.4213 20.088 26.56C20.0987 26.6987 20.104 26.9387 20.104 27.28C20.1147 27.4187 20.1253 27.584 20.136 27.776C20.1467 27.968 20.1573 28.144 20.168 28.304C20.1893 28.4533 20.2107 28.544 20.232 28.576C20.264 28.6187 20.3227 28.656 20.408 28.688C20.504 28.7093 20.6267 28.7307 20.776 28.752C20.936 28.7733 21.032 28.8427 21.064 28.96C21.096 29.0773 21.0267 29.1893 20.856 29.296C20.696 29.392 20.52 29.4347 20.328 29.424C20.136 29.4133 19.9653 29.3813 19.816 29.328ZM21.2971 33.856C21.0625 33.8987 20.9025 33.904 20.8171 33.872C20.7318 33.84 20.6145 33.7867 20.4651 33.712C20.3478 33.6267 20.2571 33.5627 20.1931 33.52C20.1291 33.4773 20.0971 33.4347 20.0971 33.392C20.0971 33.36 20.1078 33.3227 20.1291 33.28C20.1505 33.248 20.1878 33.216 20.2411 33.184C20.3051 33.1627 20.3905 33.152 20.4971 33.152C20.5718 33.1947 20.6945 33.216 20.8651 33.216C21.0465 33.216 21.1585 33.1947 21.2011 33.152C21.2011 33.152 21.2491 33.12 21.3451 33.056C21.4518 33.0027 21.5905 32.96 21.7611 32.928C22.0918 32.768 22.3851 32.5653 22.6411 32.32C22.8971 32.0747 23.1425 31.7547 23.3771 31.36C23.4731 31.2107 23.5745 31.0347 23.6811 30.832C23.7878 30.64 23.8625 30.448 23.9051 30.256C23.9905 30.0427 24.0865 29.7547 24.1931 29.392C24.3105 29.0293 24.4118 28.672 24.4971 28.32C24.5825 27.9573 24.6305 27.6853 24.6411 27.504C24.7051 26.9067 24.8065 26.3573 24.9451 25.856C25.0945 25.344 25.2225 24.7733 25.3291 24.144C25.3931 23.9947 25.4411 23.9093 25.4731 23.888C25.5051 23.856 25.5745 23.84 25.6811 23.84C25.7985 23.84 25.8838 23.8507 25.9371 23.872C26.0011 23.8827 26.0705 23.9467 26.1451 24.064C26.2518 24.2667 26.2891 24.5067 26.2571 24.784C26.2358 25.0507 26.1558 25.2853 26.0171 25.488C25.9105 25.6373 25.8145 25.872 25.7291 26.192C25.6545 26.5013 25.5798 26.8907 25.5051 27.36C25.4518 27.5947 25.3931 27.872 25.3291 28.192C25.2758 28.5013 25.2171 28.848 25.1531 29.232C25.1105 29.3387 25.0518 29.504 24.9771 29.728C24.9025 29.9413 24.8545 30.112 24.8331 30.24C24.8225 30.2827 24.7905 30.368 24.7371 30.496C24.6838 30.624 24.6305 30.7467 24.5771 30.864C24.5238 30.992 24.4865 31.0773 24.4651 31.12C24.0491 31.984 23.5745 32.6453 23.0411 33.104C22.5078 33.5627 21.9265 33.8133 21.2971 33.856ZM22.5131 29.216C22.3958 29.216 22.2731 29.152 22.1451 29.024C22.0278 28.896 21.9478 28.7947 21.9051 28.72C21.8625 28.6133 21.8091 28.512 21.7451 28.416C21.6811 28.32 21.6331 28.2027 21.6011 28.064C21.5798 27.9253 21.5905 27.7547 21.6331 27.552C21.6758 27.4133 21.7345 27.216 21.8091 26.96C21.8945 26.6933 21.9851 26.4053 22.0811 26.096C22.1878 25.7867 22.2945 25.4827 22.4011 25.184C22.5185 24.8747 22.6251 24.6027 22.7211 24.368C22.8171 24.1227 22.9025 23.9467 22.9771 23.84C23.0411 23.7547 23.1105 23.7013 23.1851 23.68C23.2705 23.6587 23.3558 23.6693 23.4411 23.712C23.5265 23.744 23.6011 23.8133 23.6651 23.92C23.7825 24.0693 23.8305 24.1973 23.8091 24.304C23.7878 24.4107 23.6918 24.6187 23.5211 24.928C23.4785 25.0453 23.4251 25.1733 23.3611 25.312C23.2971 25.44 23.2651 25.5253 23.2651 25.568C23.2545 25.5893 23.2331 25.664 23.2011 25.792C23.1798 25.9093 23.1531 26.0213 23.1211 26.128C23.0891 26.2347 23.0571 26.288 23.0251 26.288C22.9825 26.3307 22.9345 26.4533 22.8811 26.656C22.8278 26.848 22.7798 27.0667 22.7371 27.312C22.6945 27.5467 22.6678 27.7547 22.6571 27.936C22.6465 28.1067 22.6625 28.192 22.7051 28.192C23.0358 28.192 23.3771 28.064 23.7291 27.808C24.0918 27.552 24.4545 27.1787 24.8171 26.688L25.0891 27.824C24.9398 27.8987 24.8011 27.9787 24.6731 28.064C24.5451 28.1387 24.4278 28.2293 24.3211 28.336C24.2891 28.3787 24.2145 28.4373 24.0971 28.512C23.9798 28.5867 23.8625 28.656 23.7451 28.72C23.6385 28.7733 23.5691 28.8 23.5371 28.8C23.5371 28.8 23.5211 28.8053 23.4891 28.816C23.4678 28.816 23.4571 28.8373 23.4571 28.88C23.4571 28.9013 23.3878 28.944 23.2491 29.008C23.1105 29.0613 22.9665 29.1093 22.8171 29.152C22.6678 29.1947 22.5665 29.216 22.5131 29.216Z" fill="black"/>
<path d="M13.704 21.76C13.5653 21.76 13.4533 21.7333 13.368 21.68C13.2933 21.6267 13.1973 21.552 13.08 21.456C12.8773 21.2427 12.7333 21.04 12.648 20.848C12.5627 20.6453 12.536 20.4533 12.568 20.272C12.6 20.1867 12.6107 20.1067 12.6 20.032C12.6 19.9467 12.6 19.904 12.6 19.904C12.5467 19.8507 12.5307 19.8187 12.552 19.808C12.5733 19.7867 12.5947 19.7547 12.616 19.712C12.68 19.712 12.7013 19.6533 12.68 19.536C12.6587 19.4507 12.7013 19.264 12.808 18.976C12.9147 18.688 13.048 18.416 13.208 18.16C13.272 18.0533 13.368 17.9147 13.496 17.744C13.624 17.5627 13.7627 17.3867 13.912 17.216C14.072 17.0347 14.216 16.8907 14.344 16.784C14.6107 16.56 14.8453 16.3947 15.048 16.288C15.2507 16.1813 15.4693 16.1013 15.704 16.048C15.9387 15.9947 16.0987 15.968 16.184 15.968C16.28 15.968 16.408 16.0533 16.568 16.224C16.8133 16.3307 16.9893 16.4587 17.096 16.608C17.2133 16.7573 17.288 16.976 17.32 17.264C17.352 17.584 17.3253 17.952 17.24 18.368C17.1653 18.7733 16.9147 19.28 16.488 19.888C16.2213 20.272 15.976 20.56 15.752 20.752C15.528 20.9333 15.2613 21.1147 14.952 21.296C14.728 21.4453 14.5253 21.5573 14.344 21.632C14.1627 21.696 13.9493 21.7387 13.704 21.76ZM15.24 20.064C15.496 19.776 15.6987 19.504 15.848 19.248C16.008 18.992 16.1573 18.6667 16.296 18.272C16.3387 18.1547 16.3653 18.0107 16.376 17.84C16.3867 17.6587 16.3813 17.4933 16.36 17.344C16.3493 17.184 16.312 17.0933 16.248 17.072C16.12 16.9973 15.9653 16.976 15.784 17.008C15.6027 17.0293 15.4053 17.1307 15.192 17.312C14.8613 17.5893 14.5733 17.936 14.328 18.352C14.0827 18.7573 13.8427 19.2213 13.608 19.744C13.448 20.128 13.4107 20.4373 13.496 20.672C13.592 20.896 13.7893 20.976 14.088 20.912C14.3973 20.8373 14.7813 20.5547 15.24 20.064ZM18.8166 21.136C18.742 21.1467 18.662 21.1467 18.5766 21.136C18.502 21.1147 18.4273 21.0773 18.3526 21.024C18.2673 20.9387 18.2086 20.8747 18.1766 20.832C18.1446 20.7787 18.134 20.6987 18.1446 20.592C18.166 20.4853 18.2033 20.32 18.2566 20.096C18.31 19.9253 18.374 19.6907 18.4486 19.392C18.5233 19.0827 18.6033 18.7787 18.6886 18.48C18.7206 18.3093 18.7633 18.1333 18.8166 17.952C18.8806 17.7707 18.9446 17.6053 19.0086 17.456C19.0726 17.296 19.1206 17.1733 19.1526 17.088C19.238 16.7893 19.318 16.528 19.3926 16.304C19.478 16.08 19.5793 15.824 19.6966 15.536C19.814 15.2373 19.958 14.8427 20.1286 14.352C20.3633 13.712 20.5393 13.2267 20.6566 12.896C20.7846 12.5547 20.8753 12.3093 20.9286 12.16C20.9926 12 21.0353 11.8773 21.0566 11.792C21.0566 11.7067 21.078 11.6427 21.1206 11.6C21.174 11.5573 21.238 11.536 21.3126 11.536C21.462 11.536 21.5793 11.6107 21.6646 11.76C21.7606 11.8987 21.8193 12.0693 21.8406 12.272C21.862 12.464 21.83 12.6453 21.7446 12.816C21.574 13.2 21.3926 13.6587 21.2006 14.192C21.0086 14.7147 20.822 15.232 20.6406 15.744C20.4593 16.2453 20.2886 16.672 20.1286 17.024C20.1286 17.0667 20.1126 17.1413 20.0806 17.248C20.0486 17.3547 20.0113 17.4507 19.9686 17.536C19.926 17.6213 19.8833 17.7013 19.8406 17.776C19.8086 17.8507 19.7926 17.888 19.7926 17.888C19.7926 17.9307 19.7766 18.0107 19.7446 18.128C19.7126 18.2453 19.67 18.3893 19.6166 18.56C19.574 18.688 19.5206 18.8533 19.4566 19.056C19.4033 19.2587 19.366 19.4293 19.3446 19.568C19.398 19.472 19.51 19.328 19.6806 19.136C19.8513 18.944 20.0113 18.7787 20.1606 18.64C20.3313 18.4907 20.5233 18.3253 20.7366 18.144C20.95 17.9627 21.1206 17.8293 21.2486 17.744C21.3766 17.6587 21.4886 17.584 21.5846 17.52C21.6913 17.4453 21.7446 17.408 21.7446 17.408C21.7446 17.3653 21.7606 17.344 21.7926 17.344C21.8353 17.3333 21.878 17.328 21.9206 17.328C21.9633 17.328 21.9846 17.3227 21.9846 17.312C21.9953 17.3013 22.0006 17.2747 22.0006 17.232C22.0006 17.1787 22.0593 17.1307 22.1766 17.088C22.3046 17.0453 22.4486 17.0133 22.6086 16.992C22.7793 16.96 22.918 16.944 23.0246 16.944C23.1526 16.944 23.254 16.9707 23.3286 17.024C23.4033 17.0773 23.4993 17.1947 23.6166 17.376C23.7446 17.5467 23.8246 17.7547 23.8566 18C23.8993 18.2347 23.878 18.48 23.7926 18.736C23.7926 18.8213 23.7766 18.944 23.7446 19.104C23.7233 19.2533 23.7126 19.4133 23.7126 19.584L23.6166 20.096H23.8726C23.958 20.096 24.038 20.112 24.1126 20.144C24.1873 20.1653 24.2246 20.176 24.2246 20.176C24.2673 20.2187 24.31 20.2613 24.3526 20.304C24.3953 20.336 24.438 20.352 24.4806 20.352C24.6086 20.352 24.6566 20.4053 24.6246 20.512C24.5926 20.608 24.5126 20.6987 24.3846 20.784C24.1286 20.9547 23.894 21.04 23.6806 21.04C23.478 21.04 23.2913 20.9547 23.1206 20.784C22.95 20.6027 22.8433 20.4 22.8006 20.176C22.758 19.952 22.7793 19.6693 22.8646 19.328C22.9073 18.8587 22.9286 18.5173 22.9286 18.304C22.9393 18.08 22.886 17.968 22.7686 17.968C22.662 17.968 22.4753 18.0427 22.2086 18.192C21.942 18.3307 21.6433 18.5227 21.3126 18.768C20.982 19.0133 20.6566 19.2853 20.3366 19.584C20.0166 19.8827 19.75 20.192 19.5366 20.512C19.4086 20.672 19.286 20.816 19.1686 20.944C19.0513 21.0613 18.934 21.1253 18.8166 21.136Z" fill="black"/>
</svg>
